<svg width="20.000000" height="20.000000" viewBox="0 0 20 20" fill="none" xmlns="http://www.w3.org/2000/svg"
     xmlns:xlink="http://www.w3.org/1999/xlink">
    <defs/>
    <rect id="Icons 20x20" width="20.000006" height="20.000006" fill="#FFFFFF" fill-opacity="0"/>
    <path id="Path 1930"
          d="M11.4953 3.83173C9.37909 1.71552 5.948 1.71552 3.83179 3.83173C1.71555 5.94797 1.71555 9.37906 3.83179 11.4953C5.85376 13.5173 9.07608 13.6073 11.205 11.7654L15.6075 16.1682C15.7623 16.323 16.0134 16.323 16.1682 16.1682C16.3231 16.0133 16.3231 15.7623 16.1682 15.6075L11.7657 11.2047C13.6074 9.07584 13.5172 5.85364 11.4953 3.83173ZM4.39252 10.9345C2.586 9.12799 2.586 6.19904 4.39252 4.39249C6.19907 2.58594 9.12805 2.58594 10.9346 4.39249C12.7411 6.19904 12.7411 9.12799 10.9346 10.9345C9.12805 12.7411 6.19907 12.7411 4.39252 10.9345Z"
          clip-rule="evenodd" fill="#FFFFFF" fill-opacity="1.000000" fill-rule="evenodd"/>
</svg>
